<svg width="21" height="25" viewBox="0 0 21 25" fill="none" xmlns="http://www.w3.org/2000/svg">
<path d="M20.0394 7.94956C20.0394 6.47564 19.3099 5.35859 18.4972 4.25015L15.1637 0L11.8447 4.2311L11.8303 4.2501C11.6111 4.54902 11.3982 4.84863 11.2038 5.15562L9.38423 2.83584L3.71675 10.0608L3.70234 10.0798C2.25757 12.0503 0.960693 14.0299 0.960693 16.5763C0.960693 21.21 4.72144 24.9818 9.35098 24.9998L9.3853 25C14.0295 25 17.8078 21.2212 17.8078 16.5765C17.8078 15.0859 17.363 13.7896 16.7046 12.5756C18.6402 11.9293 20.0394 10.0999 20.0394 7.94956ZM9.41699 23.5331L9.38423 23.5331C5.54829 23.5331 2.42754 20.4123 2.42754 16.5764C2.42754 14.4743 3.53677 12.787 4.87822 10.9567L9.38423 5.21255L10.4933 6.62642C10.3638 7.03828 10.288 7.47534 10.288 7.94951C10.288 10.6273 12.4582 12.8079 15.132 12.8251L15.1606 12.8253C15.8653 14.0022 16.341 15.2005 16.341 16.5765C16.341 20.4019 13.2379 23.516 9.41699 23.5331ZM15.1826 11.3583H15.1637C13.284 11.3583 11.7548 9.82915 11.7548 7.94946C11.7548 6.91919 12.2967 6.09526 13.0062 5.127L15.1637 2.37661L17.3212 5.127C18.0308 6.09526 18.5726 6.91929 18.5726 7.94956C18.5726 9.82314 17.0536 11.3485 15.1826 11.3583Z" fill="#262626"/>
</svg>
