<svg width="26" height="30" viewBox="0 0 26 30" fill="none" xmlns="http://www.w3.org/2000/svg">
<path d="M25.0003 25.9325L23.2825 6.58896C23.2457 6.15951 22.8837 5.83436 22.4604 5.83436H18.9267C18.8776 2.60736 16.2395 0 13.0003 0C9.76101 0 7.12297 2.60736 7.07389 5.83436H3.54015C3.11071 5.83436 2.75488 6.15951 2.71807 6.58896L1.00028 25.9325C1.00028 25.9571 0.994141 25.9816 0.994141 26.0061C0.994141 28.2086 3.01255 30 5.49721 30H20.5033C22.988 30 25.0064 28.2086 25.0064 26.0061C25.0064 25.9816 25.0064 25.9571 25.0003 25.9325ZM13.0003 1.65644C15.3254 1.65644 17.2211 3.52147 17.2702 5.83436H8.73034C8.77942 3.52147 10.6751 1.65644 13.0003 1.65644ZM20.5033 28.3436H5.49721C3.93893 28.3436 2.67512 27.3129 2.65058 26.0429L4.29475 7.49693H7.06776V10.0123C7.06776 10.4724 7.43586 10.8405 7.89598 10.8405C8.3561 10.8405 8.7242 10.4724 8.7242 10.0123V7.49693H17.2702V10.0123C17.2702 10.4724 17.6383 10.8405 18.0984 10.8405C18.5586 10.8405 18.9267 10.4724 18.9267 10.0123V7.49693H21.6997L23.35 26.0429C23.3254 27.3129 22.0555 28.3436 20.5033 28.3436Z" fill="#262626"/>
</svg>
