<svg width="25" height="25" viewBox="0 0 25 25" fill="none" xmlns="http://www.w3.org/2000/svg">
<g clip-path="url(#clip0_2_339)">
<path d="M24.9749 3.50521L24.2166 0.675379C24.1119 0.284657 23.7103 0.0527717 23.3196 0.157459L19.0912 1.29047C18.4711 1.45663 17.9034 1.78436 17.4495 2.23832L16.3617 3.32616C15.5451 2.93715 14.5365 3.07982 13.8613 3.75497L3.50332 14.113C2.82817 14.7881 2.68555 15.7968 3.07451 16.6134L0.214551 19.4734C0.0771973 19.6107 4.88281e-05 19.797 4.88281e-05 19.9912L0 24.1345C0 24.787 0.788916 25.1138 1.25029 24.6524L6.09282 19.8099L8.68232 22.3994C10.1125 23.8295 12.4312 23.8295 13.8613 22.3994L18.2769 17.9838C19.1446 17.116 19.519 15.8795 19.2783 14.6761L18.2816 9.69257L19.0403 8.93392C19.7154 8.25878 19.8581 7.25009 19.4691 6.43353L20.4181 5.48446L24.457 4.40224C24.8477 4.29755 25.0795 3.89594 24.9749 3.50521ZM1.46484 22.3662V20.2946L4.02124 17.7382L5.05703 18.7741L1.46484 22.3662ZM17.241 16.948L12.8254 21.3636C11.9688 22.2203 10.5748 22.2203 9.71807 21.3636L4.53911 16.1846C4.25356 15.899 4.25356 15.4343 4.53911 15.1488L13.3434 6.34447L16.8118 9.81298L17.8419 14.9634C17.9863 15.6854 17.7617 16.4273 17.241 16.948ZM18.0044 7.89818L17.4865 8.4161L14.3791 5.30868L14.8971 4.79076C15.1826 4.50516 15.6473 4.50516 15.9329 4.79076L18.0044 6.86234C18.29 7.14794 18.29 7.61259 18.0044 7.89818ZM19.8494 4.1204C19.7252 4.1537 19.612 4.21903 19.5211 4.30995L18.5224 5.30868L17.4866 4.27289L18.4853 3.27416C18.7576 3.0018 19.0982 2.80516 19.4703 2.70546L22.9913 1.762L23.3704 3.17694L19.8494 4.1204Z" fill="#262626"/>
<path d="M15.5061 10.753C15.4777 10.6112 15.408 10.481 15.3058 10.3787L13.8614 8.93425C13.5753 8.64822 13.1116 8.64822 12.8256 8.93425L6.61083 15.1491C6.32479 15.4351 6.32479 15.8989 6.61083 16.1849L10.754 20.3281C11.04 20.6141 11.5037 20.6141 11.7898 20.3281L16.2054 15.9125C16.3785 15.7393 16.4537 15.4911 16.4057 15.2509L15.5061 10.753ZM13.3434 10.488L14.0927 11.2372C14.1068 11.5856 13.9764 11.9266 13.7253 12.1777L11.4445 14.4586C11.3493 14.5537 11.1944 14.5537 11.0992 14.4586L10.236 13.5954L13.3434 10.488ZM11.2719 18.7744L8.16449 15.667L9.20028 14.6312L10.0634 15.4944C10.7297 16.1607 11.8139 16.1607 12.4803 15.4944L14.5471 13.4275L14.8924 15.1538L11.2719 18.7744Z" fill="#262626"/>
</g>
<defs>
<clipPath id="clip0_2_339">
<rect width="25" height="25" fill="white"/>
</clipPath>
</defs>
</svg>
