<svg width="25" height="25" viewBox="0 0 25 25" fill="none" xmlns="http://www.w3.org/2000/svg">
<g clip-path="url(#clip0_2_329)">
<path d="M12.5 7.37305C9.673 7.37305 7.37305 9.673 7.37305 12.5C7.37305 15.327 9.673 17.627 12.5 17.627C15.327 17.627 17.627 15.327 17.627 12.5C17.627 9.673 15.327 7.37305 12.5 7.37305ZM12.5 16.1621C10.4807 16.1621 8.83789 14.5193 8.83789 12.5C8.83789 10.4807 10.4807 8.83789 12.5 8.83789C14.5193 8.83789 16.1621 10.4807 16.1621 12.5C16.1621 14.5193 14.5193 16.1621 12.5 16.1621Z" fill="#262626"/>
<path d="M24.9026 12.1339L19.0188 1.94287C18.888 1.71626 18.6462 1.57666 18.3845 1.57666H6.61694C6.35527 1.57666 6.11347 1.71626 5.98266 1.94287L0.0988708 12.1339C-0.0319397 12.3605 -0.0319397 12.6397 0.0988708 12.8663L5.98266 23.0573C6.11347 23.2839 6.35527 23.4235 6.61694 23.4235H18.3845C18.6462 23.4235 18.888 23.2839 19.0188 23.0573L24.9026 12.8663C25.0334 12.6397 25.0334 12.3605 24.9026 12.1339ZM17.9617 3.0415L19.277 5.31978L16.5098 5.87319L13.8048 4.52075C13.7395 4.48809 13.6697 4.46538 13.5977 4.45337L11.0017 4.0207L10.4141 3.04146H17.9617V3.0415ZM4.64941 17.8184L2.0017 13.2325H3.83373L4.91176 14.6699L4.64941 17.8184ZM9.40419 21.9587L10.4381 20.1494L14.9008 20.9607L15.2999 21.9587H9.40419ZM17.9617 21.9587H16.8777L16.1104 20.0406C16.0168 19.8065 15.8094 19.6371 15.5614 19.592L10.1904 18.6154C9.88486 18.5599 9.57748 18.703 9.42343 18.9727L7.71713 21.9587H7.03979L5.93393 20.0433L6.39467 14.5141C6.40956 14.3353 6.35834 14.1573 6.25073 14.0138L4.78588 12.0606C4.64755 11.8762 4.43046 11.7677 4.19994 11.7677H2.0017L7.03979 3.0415H8.7058L9.91953 5.0644C10.0299 5.24844 10.2155 5.37476 10.4271 5.41001L13.2482 5.88018L16.0794 7.29575C16.2251 7.3686 16.3909 7.39077 16.5506 7.35884L20.0502 6.65889L23.4226 12.5001L17.9617 21.9587Z" fill="#262626"/>
</g>
<defs>
<clipPath id="clip0_2_329">
<rect width="25" height="25" fill="white"/>
</clipPath>
</defs>
</svg>
