<svg width="25" height="25" viewBox="0 0 25 25" fill="none" xmlns="http://www.w3.org/2000/svg">
<g clip-path="url(#clip0_2_322)">
<path d="M14.3983 6.55112C13.5715 5.67084 12.1816 5.62109 11.2917 6.45712C10.4078 7.2895 10.3655 8.6788 11.1982 9.56298L14.5622 13.1373C15.381 14.0068 16.7724 14.0745 17.6682 13.2306C18.5521 12.3982 18.5944 11.0089 17.7617 10.1248L14.3983 6.55112ZM16.6639 12.1642C16.3731 12.4381 15.9096 12.4315 15.6288 12.1332L12.2647 8.55888C11.9856 8.2625 12.0031 7.79931 12.2953 7.52416C12.5899 7.24736 13.0538 7.25927 13.3311 7.55454L16.6951 11.1288C16.9727 11.4236 16.9587 11.8866 16.6639 12.1642Z" fill="#262626"/>
<path d="M21.09 9.38569L15.2306 3.16011C15.0922 3.01309 14.8992 2.92969 14.6973 2.92969H12.5V0.732422C12.5 0.32793 12.1721 0 11.7676 0H7.37305C6.96855 0 6.64062 0.32793 6.64062 0.732422V3.38364L3.89595 6.47139C3.77681 6.60547 3.71094 6.77861 3.71094 6.95801V19.8732C3.71099 20.4354 3.92324 20.9489 4.27178 21.3379C3.92324 21.7269 3.71094 22.2405 3.71094 22.8027C3.71094 24.0143 4.69663 25 5.9082 25H19.0918C20.3034 25 21.2891 24.0143 21.2891 22.8027C21.2891 22.2404 21.0765 21.727 20.7278 21.3379C21.0765 20.9488 21.2891 20.4354 21.2891 19.873V9.8877C21.2891 9.70112 21.2179 9.52158 21.09 9.38569ZM8.10547 1.46484H11.0352V2.92969H8.10547V1.46484ZM19.0918 23.5352H5.9082C5.50435 23.5352 5.17578 23.2066 5.17578 22.8027C5.17578 22.3989 5.50435 22.0703 5.9082 22.0703C6.3127 22.0703 6.64062 21.7424 6.64062 21.3379C6.64062 20.9334 6.3127 20.6055 5.9082 20.6055C5.50435 20.6055 5.17578 20.2769 5.17578 19.873C5.17578 19.4692 5.50435 19.1406 5.9082 19.1406C6.3127 19.1406 6.64062 18.8127 6.64062 18.4082C6.64062 18.0037 6.3127 17.6758 5.9082 17.6758C5.65142 17.6758 5.40503 17.7205 5.17578 17.8018V7.23647L7.70195 4.39453H14.3808L19.8242 10.1782V17.8018C19.595 17.7205 19.3486 17.6758 19.0918 17.6758C18.6873 17.6758 18.3594 18.0037 18.3594 18.4082C18.3594 18.8127 18.6873 19.1406 19.0918 19.1406C19.4957 19.1406 19.8242 19.4692 19.8242 19.873C19.8242 20.2769 19.4957 20.6055 19.0918 20.6055C18.9907 20.6055 18.8943 20.626 18.8067 20.663C18.5438 20.7742 18.3594 21.0345 18.3594 21.3379C18.3594 21.6413 18.5438 21.9016 18.8067 22.0127C18.8943 22.0498 18.9907 22.0703 19.0918 22.0703C19.4957 22.0703 19.8242 22.3989 19.8242 22.8027C19.8242 23.2066 19.4957 23.5352 19.0918 23.5352Z" fill="#262626"/>
<path d="M13.1026 15.0623C12.9659 14.8643 12.7406 14.7461 12.5 14.7461C12.2594 14.7461 12.0341 14.8643 11.8974 15.0623C11.8817 15.0849 11.5104 15.6236 11.134 16.2725C10.3889 17.5569 10.3027 18.1065 10.3027 18.4082C10.3027 19.6198 11.2884 20.6055 12.5 20.6055C13.7116 20.6055 14.6973 19.6198 14.6973 18.4082C14.6973 18.1065 14.6111 17.5569 13.866 16.2725C13.4896 15.6236 13.1183 15.0849 13.1026 15.0623ZM12.5 19.1406C12.0961 19.1406 11.7676 18.8121 11.7676 18.409C11.7735 18.1851 12.0782 17.5468 12.5001 16.8359C12.9217 17.546 13.2262 18.184 13.2324 18.4087C13.2321 18.8124 12.9037 19.1406 12.5 19.1406Z" fill="#262626"/>
</g>
<defs>
<clipPath id="clip0_2_322">
<rect width="25" height="25" fill="white"/>
</clipPath>
</defs>
</svg>
